<svg xmlns="http://www.w3.org/2000/svg" xmlns:xlink="http://www.w3.org/1999/xlink" width="96" height="112" viewBox="0 0 96 112">
  <defs>
    <clipPath id="clip-path">
      <rect id="Rectangle_2018" data-name="Rectangle 2018" width="96" height="112" transform="translate(1348 3845)" fill="#fff" stroke="#707070" stroke-width="1"/>
    </clipPath>
  </defs>
  <g id="Mask_Group_88" data-name="Mask Group 88" transform="translate(-1348 -3845)" clip-path="url(#clip-path)">
    <g id="Group_5031" data-name="Group 5031" transform="translate(432.337 -60.143)">
      <g id="Group_4996" data-name="Group 4996" transform="translate(936.117 4057.785)">
        <path id="Path_18048" data-name="Path 18048" d="M155.124,987.186c1.929.82,6.785,1.62,7.925.162.464-.992-.586-1.825-1.783-2.417,0,.005-.3,1.254-4.061.623-1.44-.242-4.528-9.268-5.188-13.544l-.008-.011c-.648.827-1.31,1.656-2,2.484C150.864,978.673,153.79,986.618,155.124,987.186Z" transform="translate(-150.008 -971.999)" fill="#ffbe00"/>
      </g>
      <g id="Group_4997" data-name="Group 4997" transform="translate(966.844 4069.321)">
        <path id="Path_18049" data-name="Path 18049" d="M223.406,994.41h0c-1.162,2.561-12.611.589-15.1-.523a17.975,17.975,0,0,0,.436,2.479c6.711,1.883,18.7,2.8,19.441,1.082C228.851,995.914,226.349,995.148,223.406,994.41Z" transform="translate(-208.31 -993.887)" fill="#ffbe00"/>
      </g>
      <g id="Group_4998" data-name="Group 4998" transform="translate(959.81 3920.792)">
        <path id="Path_18050" data-name="Path 18050" d="M200.144,741.5c-.139-.278-3.391-6.852-3.235-10.382l.017-.377.362-.106c2.206-.647,3.573-1.551,4.178-2.764.639-1.282.5-2.972-.446-5.481l-.124-.328.255-.241c.386-.366.814-.793,1.121-1.12-.482-.067-1.149-.137-1.738-.184l-.308-.025-.129-.281c-.442-.962-.941-1.97-1.415-2.917-1.325-2.65-2.055-3.49-3.719-4.279l.452-.952c1.9.9,2.771,1.882,4.209,4.76.432.864.885,1.78,1.3,2.669,2.576.219,2.64.413,2.744.726.1.291.164.489-1.542,2.129.947,2.631,1.032,4.49.282,5.994-.705,1.415-2.162,2.461-4.449,3.191.09,3.358,3.1,9.435,3.128,9.5Z" transform="translate(-194.963 -712.063)" fill="#2a2a2a"/>
      </g>
      <g id="Group_4999" data-name="Group 4999" transform="translate(964.068 3932.213)">
        <path id="Path_18051" data-name="Path 18051" d="M205.2,735.912a1.6,1.6,0,0,1-.361-.041,2.831,2.831,0,0,1-1.8-1.735l.975-.4a1.829,1.829,0,0,0,1.058,1.109.565.565,0,0,0,.537-.163l.705.784a1.656,1.656,0,0,1-1.114.446Z" transform="translate(-203.042 -733.734)" fill="#2a2a2a"/>
      </g>
      <g id="Group_5000" data-name="Group 5000" transform="translate(961.26 3928.076)">
        <path id="Path_18052" data-name="Path 18052" d="M199.357,726.706a.821.821,0,1,1-.821-.821.821.821,0,0,1,.821.821Z" transform="translate(-197.715 -725.885)" fill="#2a2a2a"/>
      </g>
      <g id="Group_5001" data-name="Group 5001" transform="translate(918 3919.833)">
        <path id="Path_18053" data-name="Path 18053" d="M142.915,781.99c-3.382,0-9.814-1.4-13.626-4.944-.971-.9-1.8-1.786-2.609-2.64-2.8-2.974-5.012-5.314-10.414-5.249l-.633.009.106-.625a17.89,17.89,0,0,1,7.012-10.762,35.933,35.933,0,0,1,4.055-2.371c3.8-1.992,5.9-3.089,3.243-8.477-3.075-6.234.383-8.373,4.387-10.851a36.973,36.973,0,0,0,4.1-2.8c2.555-2.091,2.572-4.472,2.6-7.486.025-3.166.052-6.753,3.036-10.889,3.723-5.161,11.289-5.458,13.811-3.65l.812.582-.935.34a3.11,3.11,0,0,0-1.585,1.8c-.525,1.343-.686,3.887,1.531,8.373,2.111,4.273.2,7.341-2.02,10.894-.252.4-.51.817-.768,1.242-.208.343-.4.659-.588.953-1.955,3.151-2.256,3.635.323,8.392,2.129,3.93-1.463,8.068-4.83,11.234-1.893,1.779-1.3,3.881-.54,6.541a17.837,17.837,0,0,1,.942,5.794c-.122,2.522-1.549,4.554-2.93,6.52-1.621,2.309-3.153,4.489-2.531,7.307l.111.5-.5.124a6.775,6.775,0,0,1-1.56.139Zm-26-13.885c5.385.12,7.775,2.657,10.527,5.578.794.842,1.614,1.712,2.56,2.59,3.932,3.651,11.04,4.929,13.72,4.63-.428-3.005,1.21-5.338,2.8-7.6,1.354-1.927,2.633-3.748,2.739-5.964a16.755,16.755,0,0,0-.9-5.456c-.786-2.766-1.528-5.379.832-7.6,4.593-4.318,6.019-7.391,4.625-9.964-2.773-5.117-2.419-6.021-.291-9.45.181-.292.376-.606.582-.945.26-.428.52-.844.774-1.252,2.134-3.421,3.82-6.123,1.969-9.869-1.929-3.9-2.451-7.022-1.551-9.267a4.5,4.5,0,0,1,1.315-1.828c-2.707-1.053-8.6-.346-11.6,3.8-2.787,3.863-2.813,7.272-2.836,10.281-.024,3.028-.046,5.89-2.982,8.293a38.312,38.312,0,0,1-4.209,2.885c-4,2.477-6.647,4.114-4,9.489,3.113,6.31.106,7.884-3.7,9.877a34.887,34.887,0,0,0-3.94,2.3,17.1,17.1,0,0,0-6.43,9.472Z" transform="translate(-115.632 -710.244)" fill="#2a2a2a"/>
      </g>
      <g id="Group_5002" data-name="Group 5002" transform="translate(958.704 3923.59)">
        <path id="Path_18054" data-name="Path 18054" d="M193.9,747.133l-1.032-.214c.008-.038.821-3.763,6.257-3.678l.373.007c5.673.1,20.733.38,27.456-19.154.872-3.23,5.314-6.579,5.5-6.72l.631.844c-.043.032-4.34,3.273-5.127,6.185-6.983,20.292-23.164,19.991-28.482,19.9l-.371-.007h-.17C194.573,744.293,193.924,747.015,193.9,747.133Z" transform="translate(-192.866 -717.373)" fill="#2a2a2a"/>
      </g>
      <g id="Group_5003" data-name="Group 5003" transform="translate(995.771 3922.688)">
        <rect id="Rectangle_1995" data-name="Rectangle 1995" width="8.503" height="1.054" transform="matrix(0.729, -0.685, 0.685, 0.729, 0, 5.825)" fill="#2a2a2a"/>
      </g>
      <g id="Group_5004" data-name="Group 5004" transform="translate(997.912 3922.72)">
        <path id="Path_18055" data-name="Path 18055" d="M267.892,722.384l-.632-.843c.05-.037,4.957-3.732,6.312-5.818l.884.574C273,718.539,268.1,722.228,267.892,722.384Z" transform="translate(-267.26 -715.723)" fill="#2a2a2a"/>
      </g>
      <g id="Group_5005" data-name="Group 5005" transform="translate(998.729 3925.611)">
        <path id="Path_18056" data-name="Path 18056" d="M269.4,726.463l-.588-.875a47.452,47.452,0,0,0,5.564-4.38l.745.745A47.536,47.536,0,0,1,269.4,726.463Z" transform="translate(-268.809 -721.208)" fill="#2a2a2a"/>
      </g>
      <g id="Group_5006" data-name="Group 5006" transform="translate(965.643 3984.419)">
        <path id="Path_18057" data-name="Path 18057" d="M222.37,922.68a64.88,64.88,0,0,1-14.844-2l-.288-.081-.078-.289c-1.312-4.856-.909-19.01-.481-33.995.43-15.049.874-30.611-.648-34.538l.982-.38c1.6,4.125,1.173,19.1.72,34.948-.4,13.969-.812,28.405.371,33.4,7.361,2,17.871,2.353,18.524,1.295a.512.512,0,0,0,.012-.469c-.425-.856-3.018-1.494-5.3-2.058-3.4-.837-6.921-1.7-7.313-3.815-.164-.882.311-3.481,1.313-8.8,3.013-16.006,9.283-49.312,1.881-72.783l1.006-.317c7.481,23.724,1.178,57.206-1.851,73.3-.808,4.3-1.448,7.69-1.312,8.418.267,1.442,3.739,2.3,6.528,2.984,2.873.708,5.355,1.318,6,2.612a1.574,1.574,0,0,1,.009,1.361C227.218,922.336,225.137,922.68,222.37,922.68Z" transform="translate(-206.031 -832.793)"/>
      </g>
      <g id="Group_5007" data-name="Group 5007" transform="translate(935.55 3998.801)">
        <path id="Path_18058" data-name="Path 18058" d="M159.753,935.75a15.708,15.708,0,0,1-5.344-1.014c-1.741-.74-4.707-9.561-5.427-13.081l-.051-.249.162-.194c17.643-21.153,20.9-41.882,21.788-61.131l1.053.049c-.9,19.373-4.169,40.236-21.868,61.56,1.016,4.731,3.86,11.682,4.755,12.077,2.1.893,6.335,1.384,7.265.368a.551.551,0,0,0-.025-.458c-.438-.922-2.753-1.808-4.109-2.149l-.329-.083-.061-.334c-.248-1.367-.437-2.849-.6-4.157-.089-.7-.174-1.365-.261-1.965l-.033-.229.147-.18c.074-.09.287-.321.618-.679,12.565-13.588,20.575-26.443,22.553-36.2l1.033.21c-2.016,9.94-10.118,22.974-22.812,36.7-.182.2-.326.353-.428.464.076.541.151,1.128.229,1.741.152,1.19.322,2.526.537,3.775,1.01.287,3.788,1.191,4.472,2.629a1.61,1.61,0,0,1,0,1.413l-.063.1a4.078,4.078,0,0,1-3.2,1.017Z" transform="translate(-148.932 -860.081)"/>
      </g>
      <g id="Group_5008" data-name="Group 5008" transform="translate(953.034 3984.451)">
        <path id="Path_18059" data-name="Path 18059" d="M186.294,833.368c-.841,3.431-3.647,16.276-4.187,23.928.643,1.064,18.474,2.99,28.774,0-.019-4.677-2.356-23.66-3.257-24.443C200.033,833.909,186.294,833.368,186.294,833.368Z" transform="translate(-182.107 -832.854)" fill="#ffbe00"/>
      </g>
      <g id="Group_5009" data-name="Group 5009" transform="translate(953.672 3931.856)">
        <path id="Path_18060" data-name="Path 18060" d="M192.634,786.788c-5.033,0-8.713-.224-8.789-.229l-.528-.033,1.736-25.7,1.051.071-1.664,24.639c2.749.141,15.624.685,25.352-.977-.422-2.157-2.113-10.673-4.39-20.338l-.1-.447.428-.166c13.7-5.3,20.85-23.2,22.009-30.55l1.041.164c-1.177,7.463-8.4,25.535-22.243,31.2,2.576,10.983,4.38,20.37,4.4,20.464l.1.523-.524.095a106.8,106.8,0,0,1-17.874,1.284Z" transform="translate(-183.317 -733.058)" fill="#2a2a2a"/>
      </g>
      <g id="Group_5010" data-name="Group 5010" transform="translate(924.885 3919.883)">
        <path id="Path_18061" data-name="Path 18061" d="M128.726,770.5c-.383-3.838,2.855-6.171,6.284-8.641,3.209-2.312,6.526-4.7,7.178-8.5a18.436,18.436,0,0,0-.49-7.545c-.786-3.563-1.465-6.639,3.253-10.266,6.289-4.836,6.265-6.516,6.187-12.082-.009-.607-.018-1.257-.02-1.961-.026-9.174,5.955-10.869,7.789-11.169l.171,1.04c-1.626.267-6.929,1.786-6.906,10.126,0,.7.011,1.345.02,1.949.083,5.814.11,7.773-6.6,12.932-4.186,3.218-3.632,5.729-2.865,9.2a19.31,19.31,0,0,1,.5,7.95c-.725,4.224-4.378,6.855-7.6,9.178-3.312,2.386-6.174,4.447-5.851,7.68Z" transform="translate(-128.695 -710.34)" fill="#2a2a2a"/>
      </g>
      <g id="Group_5011" data-name="Group 5011" transform="translate(936.47 3960.128)">
        <path id="Path_18062" data-name="Path 18062" d="M151.732,815.885l-1.054-.036c.176-5.2,3.341-7.013,5.884-8.474,2.25-1.293,4.028-2.315,3.587-5.2l-.032-.208c-1.03-6.763-1.342-8.8,5.341-15.264l.732.758c-6.291,6.081-6.049,7.668-5.03,14.347l.032.208c.548,3.6-1.817,4.96-4.1,6.275C154.531,809.757,151.888,811.276,151.732,815.885Z" transform="translate(-150.678 -786.701)" fill="#2a2a2a"/>
      </g>
      <g id="Group_5012" data-name="Group 5012" transform="translate(955.941 3944.809)">
        <path id="Path_18063" data-name="Path 18063" d="M188.722,766.528l-.786-.078a51.779,51.779,0,0,0-.314-8.73l.786-.084a52.506,52.506,0,0,1,.314,8.892Z" transform="translate(-187.622 -757.635)" fill="#2a2a2a"/>
      </g>
      <g id="Group_5013" data-name="Group 5013" transform="translate(967.153 3960.881)">
        <path id="Path_18064" data-name="Path 18064" d="M210.517,791.623a12.078,12.078,0,0,1-1.62-.092l.149-1.043a23.478,23.478,0,0,0,11.978-2.358l.49.933a25.177,25.177,0,0,1-11,2.56Z" transform="translate(-208.897 -788.13)" fill="#2a2a2a"/>
      </g>
      <g id="Group_5014" data-name="Group 5014" transform="translate(984.364 3943.667)">
        <path id="Path_18065" data-name="Path 18065" d="M248.075,761.7a28.647,28.647,0,0,0-6.521-5.324l.535-.908a29.192,29.192,0,0,1,6.81,5.574Z" transform="translate(-241.554 -755.469)" fill="#2a2a2a"/>
      </g>
      <g id="Group_5015" data-name="Group 5015" transform="translate(956.381 3945.268)">
        <path id="Path_18066" data-name="Path 18066" d="M190.594,760.188a9.178,9.178,0,0,1-2.137-.21l.2-.765a12.985,12.985,0,0,0,6.881-.708l.262.745A15.7,15.7,0,0,1,190.594,760.188Z" transform="translate(-188.457 -758.505)" fill="#2a2a2a"/>
      </g>
      <g id="Group_5016" data-name="Group 5016" transform="translate(956.726 3948.224)">
        <path id="Path_18067" data-name="Path 18067" d="M190.7,765.961a13.866,13.866,0,0,1-1.591-.078l.1-.785a19.042,19.042,0,0,0,7.77-.984l.262.745A20,20,0,0,1,190.7,765.961Z" transform="translate(-189.112 -764.115)" fill="#2a2a2a"/>
      </g>
      <g id="Group_5017" data-name="Group 5017" transform="translate(958.076 3946.563)">
        <rect id="Rectangle_1996" data-name="Rectangle 1996" width="0.791" height="3.408" transform="translate(0 0.059) rotate(-4.261)" fill="#2a2a2a"/>
      </g>
      <g id="Group_5018" data-name="Group 5018" transform="translate(959.812 3946.438)">
        <rect id="Rectangle_1997" data-name="Rectangle 1997" width="0.791" height="3.152" transform="matrix(0.985, -0.174, 0.174, 0.985, 0, 0.138)" fill="#2a2a2a"/>
      </g>
      <g id="Group_5019" data-name="Group 5019" transform="translate(961.461 3946.15)">
        <rect id="Rectangle_1998" data-name="Rectangle 1998" width="0.79" height="3.184" transform="translate(0 0.294) rotate(-21.801)" fill="#2a2a2a"/>
      </g>
      <g id="Group_5020" data-name="Group 5020" transform="translate(982.203 3944.726)">
        <rect id="Rectangle_1999" data-name="Rectangle 1999" width="4.479" height="0.79" transform="matrix(0.716, -0.698, 0.698, 0.716, 0, 3.125)" fill="#2a2a2a"/>
      </g>
      <g id="Group_5021" data-name="Group 5021" transform="translate(984.013 3945.829)">
        <rect id="Rectangle_2000" data-name="Rectangle 2000" width="4.449" height="0.79" transform="matrix(0.702, -0.712, 0.712, 0.702, 0, 3.168)" fill="#2a2a2a"/>
      </g>
      <g id="Group_5022" data-name="Group 5022" transform="translate(985.663 3947.369)">
        <rect id="Rectangle_2001" data-name="Rectangle 2001" width="4.274" height="0.79" transform="translate(0 3.22) rotate(-48.881)" fill="#2a2a2a"/>
      </g>
      <g id="Group_5023" data-name="Group 5023" transform="translate(986.903 3948.294)">
        <rect id="Rectangle_2002" data-name="Rectangle 2002" width="4.729" height="0.79" transform="translate(0 3.831) rotate(-54.115)" fill="#2a2a2a"/>
      </g>
      <g id="Group_5024" data-name="Group 5024" transform="translate(954.361 3980.037)">
        <path id="Path_18068" data-name="Path 18068" d="M196.377,826.951a91.179,91.179,0,0,1-11.752-.661l.217-1.031c1.479.31,17.246,1.6,25.162-.781l.3,1.01C206.553,826.616,201.221,826.951,196.377,826.951Z" transform="translate(-184.625 -824.478)" fill="#2a2a2a"/>
      </g>
      <g id="Group_5025" data-name="Group 5025" transform="translate(980.356 3946.376)">
        <path id="Path_18069" data-name="Path 18069" d="M241.182,768.489c-1.692-3.1-6.121-6.374-7.233-6.941l.479-.939c1.221.622,5.852,4.023,7.68,7.376Z" transform="translate(-233.949 -760.609)" fill="#2a2a2a"/>
      </g>
      <g id="Group_5026" data-name="Group 5026" transform="translate(973.664 3906)">
        <path id="Path_18070" data-name="Path 18070" d="M227.886,716.979h-.045a.526.526,0,0,1-.482-.5c-.153-2.988-.641-6.433-1.138-7a3.646,3.646,0,0,1-2.588-.865c-1.548-1.283-2.334-3.783-2.334-7.432v-8.575c-.261-2.486.432-7.33,4.926-8.062,3.447-.559,7.856-.029,11.4.4a46.8,46.8,0,0,0,4.925.443,26.492,26.492,0,0,0,4.861-.7c2.65-.541,5.154-1.051,6.746-.338,3.077,1.378,4.294,3.7,4.068,7.776-.108,1.94-.169,4.332-.222,6.443-.069,2.717-.129,5.063-.268,5.969-.028.18-.045.387-.064.612-.147,1.721-.42,4.924-5.91,4.924-1.519,0-2.935-.05-4.454-.155l.073-1.052c1.494.1,2.886.153,4.381.153,4.522,0,4.717-2.289,4.86-3.96.022-.251.042-.482.073-.684.129-.839.191-3.266.256-5.835.054-2.119.115-4.52.223-6.475.248-4.47-1.51-5.889-3.446-6.756-1.284-.575-3.735-.075-6.1.409a27.18,27.18,0,0,1-5.072.723,47.328,47.328,0,0,1-5.052-.451c-3.477-.42-7.8-.942-11.1-.4-4.652.757-4.072,6.684-4.045,6.937a.507.507,0,0,1,0,.056v8.6c0,4.11,1.05,5.859,1.931,6.6a2.527,2.527,0,0,0,1.933.636.6.6,0,0,1,.141-.006c.906.083,1.535,1.939,1.877,5.527a10.557,10.557,0,0,1,2.96-3.841c1.929-1.493,5.326-1.807,7.836-1.807v1.054c-3.363,0-5.85.548-7.191,1.587a11.055,11.055,0,0,0-3.444,5.635.527.527,0,0,1-.515.41Z" transform="translate(-221.251 -683.997)" fill="#2a2a2a"/>
      </g>
      <g id="Group_5027" data-name="Group 5027" transform="translate(979.861 3912.505)">
        <path id="Path_18071" data-name="Path 18071" d="M254.244,699.549a8.086,8.086,0,0,1-4.405-1.808c-1.226-.92-3.871.486-4.159.735a6.474,6.474,0,0,1-3.44.749,4.226,4.226,0,0,1-3.1-1.263c-1.2-1.334-4.477-.022-5.637.6l-.5-.931c.2-.106,4.925-2.583,6.916-.37,1.458,1.621,4.705.658,5.062.427.358-.353,3.637-2.171,5.483-.786,1.56,1.169,3.625,2.043,4.724,1.357,1.509-.943,3.841-1.146,4.564-.781l-.476.941a5.7,5.7,0,0,0-3.528.734A2.806,2.806,0,0,1,254.244,699.549Z" transform="translate(-233.01 -696.34)" fill="#2a2a2a"/>
      </g>
      <g id="Group_5028" data-name="Group 5028" transform="translate(979.861 3918.064)">
        <path id="Path_18072" data-name="Path 18072" d="M248.525,709.526a6.282,6.282,0,0,1-3.282-1.353c-.761-.57-2.562.3-2.85.53a4.8,4.8,0,0,1-2.6.578,3.219,3.219,0,0,1-2.354-.966c-.8-.894-3.166.06-3.93.464l-.495-.931c.376-.2,3.712-1.9,5.209-.239.957,1.063,3.157.472,3.492.292.437-.359,2.775-1.615,4.165-.571,1.1.822,2.536,1.444,3.278.98l.558.893A2.193,2.193,0,0,1,248.525,709.526ZM241.725,707.894Z" transform="translate(-233.01 -706.888)" fill="#2a2a2a"/>
      </g>
      <g id="Group_5029" data-name="Group 5029" transform="translate(979.861 3923.874)">
        <path id="Path_18073" data-name="Path 18073" d="M239.957,720.309h-.168a3.215,3.215,0,0,1-2.354-.966c-.805-.894-3.166.06-3.93.464l-.495-.931c.376-.2,3.712-1.9,5.209-.239.97,1.078,3.214.456,3.5.284a.339.339,0,0,0-.051.041l.733.758a4.636,4.636,0,0,1-2.444.589Z" transform="translate(-233.01 -717.912)" fill="#2a2a2a"/>
      </g>
    </g>
  </g>
</svg>
