<?xml version="1.0" encoding="UTF-8"?>
<svg width="162px" height="30px" viewBox="0 0 162 30" version="1.1" xmlns="http://www.w3.org/2000/svg" xmlns:xlink="http://www.w3.org/1999/xlink">
    <!-- Generator: Sketch 60.1 (88133) - https://sketch.com -->
    <title>2</title>
    <desc>Created with Sketch.</desc>
    <defs>
        <path d="M8.1580425,20.4844444 L7.78188023,20.2921605 C4.59509222,18.6628071 2.48422878,17.0620609 1.32859879,15.3984891 C0.299866905,13.9175321 0.158042498,12.5881276 0.158042498,11.3720494 L0.158042498,3.54912911 L8.1580425,0.0677777778 L16.1580425,3.54912911 L16.1580425,11.3720494 C16.1580425,12.5880775 16.0162181,13.9175321 14.9874862,15.3984891 C13.8318562,17.0620609 11.7209435,18.6628071 8.5341555,20.2921605 L8.1580425,20.4844444 Z" id="path-1"></path>
        <filter x="-2.1%" y="-2.2%" width="106.2%" height="112.1%" filterUnits="objectBoundingBox" id="filter-2">
            <feOffset dx="0" dy="1" in="SourceAlpha" result="shadowOffsetOuter1"></feOffset>
            <feColorMatrix values="0 0 0 0 0.388235294   0 0 0 0 0.568627451   0 0 0 0 0.137254902  0 0 0 0.831211757 0" type="matrix" in="shadowOffsetOuter1"></feColorMatrix>
        </filter>
    </defs>
    <g id="2" stroke="none" stroke-width="1" fill="none" fill-rule="evenodd">
        <g id="1">
            <path d="M15,0 L147,0 C155.284271,-1.52179594e-15 162,6.71572875 162,15 C162,23.2842712 155.284271,30 147,30 L15,30 C6.71572875,30 1.01453063e-15,23.2842712 0,15 C-1.01453063e-15,6.71572875 6.71572875,1.52179594e-15 15,0 Z" id="Bg" fill="#E5FDC3"></path>
            <g id="icon" transform="translate(8.841958, 5.000000)" fill-rule="nonzero">
                <g id="Shape">
                    <use fill="black" fill-opacity="1" filter="url(#filter-2)" xlink:href="#path-1"></use>
                    <use fill="#8CC63B" xlink:href="#path-1"></use>
                </g>
                <path d="M7.53038674,11.2149792 C7.53038674,11.5626462 7.4935547,11.8455837 7.4198895,12.0638003 C7.34622431,12.2820168 7.21731215,12.465094 7.03314917,12.6130374 L10.8895028,12.6130374 L10.8895028,14 L5,14 L5,12.8349515 C5.31676033,12.6722137 5.53222779,12.492835 5.64640884,12.29681 C5.76058989,12.100785 5.81767956,11.8178474 5.81767956,11.4479889 L5.81767956,10.5603329 L5,10.5603329 L5,9.52843273 L5.81767956,9.52843273 L5.81767956,8.23023578 C5.81767956,7.79380272 5.92265088,7.40545709 6.13259669,7.06518724 C6.34254249,6.72491739 6.64088204,6.46232178 7.02762431,6.27739251 C7.41436657,6.09246325 7.85819271,6 8.35911602,6 C8.86740586,6 9.34990564,6.07581986 9.80662983,6.22746186 C10.263354,6.37910386 10.6611401,6.59916638 11,6.88765603 L10.4364641,8.13037448 C10.0976042,7.87887068 9.76059099,7.68839639 9.42541436,7.55894591 C9.09023773,7.42949542 8.78269017,7.36477115 8.50276243,7.36477115 C7.85450873,7.36477115 7.53038674,7.69394031 7.53038674,8.35228849 L7.53038674,9.52843273 L9.32044199,9.52843273 L9.32044199,10.5603329 L7.53038674,10.5603329 L7.53038674,11.2149792 Z" id="£" fill="#F4FFFE"></path>
            </g>
            <path d="M38.225408,19.04256 L38.139392,16.935168 L37.945856,14.655744 L37.838336,14.655744 L36.46208,18.34368 L35.128832,18.34368 L33.924608,14.655744 L33.806336,14.655744 L33.591296,16.773888 L33.45152,19.04256 L32,19.04256 L32.688128,12.10752 L34.698752,12.10752 L34.946048,13.118208 L35.838464,16.08576 L35.945984,16.08576 L36.913664,13.150464 L37.193216,12.10752 L39.171584,12.10752 L39.762944,19.04256 L38.225408,19.04256 Z M43.8272,12 C44.8163889,12 45.5797733,12.295677 46.117376,12.88704 C46.6549787,13.478403 46.923776,14.3188426 46.923776,15.408384 C46.923776,16.5982779 46.6298909,17.5211487 46.042112,18.177024 C45.4543331,18.8328993 44.6264373,19.160832 43.5584,19.160832 C42.5763791,19.160832 41.8165787,18.857987 41.278976,18.252288 C40.7413733,17.646589 40.472576,16.7882296 40.472576,15.677184 C40.472576,14.5016261 40.7646691,13.5948832 41.348864,12.956928 C41.9330589,12.3189728 42.7591627,12 43.8272,12 Z M43.676672,13.39776 C43.3326063,13.39776 43.060225,13.4622714 42.85952,13.591296 C42.658815,13.7203206 42.5136644,13.9335665 42.424064,14.23104 C42.3344636,14.5285135 42.289664,14.9317095 42.289664,15.44064 C42.289664,16.049923 42.3362555,16.5265903 42.42944,16.870656 C42.5226245,17.2147217 42.671359,17.4620152 42.875648,17.612544 C43.079937,17.7630728 43.3576942,17.838336 43.708928,17.838336 C44.0458257,17.838336 44.314623,17.7720327 44.515328,17.639424 C44.716033,17.5068153 44.8629755,17.2917775 44.95616,16.994304 C45.0493445,16.6968305 45.095936,16.2900506 45.095936,15.773952 C45.095936,15.171837 45.0493445,14.7005457 44.95616,14.360064 C44.8629755,14.0195823 44.714241,13.7740808 44.509952,13.623552 C44.305663,13.4730232 44.0279058,13.39776 43.676672,13.39776 Z M53.923328,19.04256 L52.030976,19.04256 L49.568768,14.752512 L49.461248,14.752512 L49.450496,16.601856 L49.52576,19.04256 L47.923712,19.04256 L48.02048,16.99968 L47.934464,12.10752 L49.826816,12.10752 L52.289024,16.397568 L52.396544,16.397568 L52.342784,12.172032 L53.955584,12.075264 L53.858816,16.849152 L53.923328,19.04256 Z M60.148736,17.75232 L60.041216,19.04256 L55.460864,19.04256 L55.557632,16.988928 L55.460864,12.10752 L60.105728,12.10752 L60.202496,12.236544 L60.084224,13.526784 L58.39616,13.462272 L57.21344,13.473024 L57.191936,14.860032 L58.320896,14.860032 L59.449856,14.827776 L59.546624,14.9568 L59.439104,16.24704 L58.202624,16.214784 L57.15968,16.214784 L57.148928,16.816896 L57.170432,17.677056 L58.310144,17.687808 L60.051968,17.623296 L60.148736,17.75232 Z M64.191488,19.04256 L62.449664,19.04256 L62.53568,17.16096 L62.524928,16.78464 L60.310016,12.10752 L62.148608,12.10752 L62.309888,12.623616 L63.320576,15.042816 L63.438848,15.042816 L64.57856,12.688128 L64.7936,12.10752 L66.589184,12.10752 L64.137728,16.741632 L64.116224,17.16096 L64.191488,19.04256 Z M72.825344,15.462144 C73.2912663,15.5768326 73.6317429,15.7649907 73.846784,16.026624 C74.0618251,16.2882573 74.169344,16.6341098 74.169344,17.064192 C74.169344,18.4261188 73.065483,19.107072 70.857728,19.107072 C70.1409244,19.107072 69.4563873,19.0855682 68.804096,19.04256 L68.793344,19.04256 L68.890112,16.988928 L68.793344,12.10752 L71.524352,12.096768 C72.2626597,12.096768 72.8396779,12.2472945 73.255424,12.548352 C73.6711701,12.8494095 73.87904,13.2830692 73.87904,13.849344 C73.87904,14.2149138 73.7876489,14.5356786 73.604864,14.811648 C73.4220791,15.0876174 73.1622417,15.3044472 72.825344,15.462144 Z M72.10496,14.085888 C72.10496,13.7919985 72.0135689,13.5877126 71.830784,13.473024 C71.6479991,13.3583354 71.3200664,13.300992 70.846976,13.300992 L70.502912,13.300992 L70.459904,14.989056 L71.384576,15.032064 C71.6282892,14.9603836 71.8092794,14.8492808 71.927552,14.698752 C72.0458246,14.5482232 72.10496,14.3439373 72.10496,14.085888 Z M71.180288,17.902848 C71.5673619,17.902848 71.8684149,17.8240008 72.083456,17.666304 C72.2984971,17.5086072 72.406016,17.2828175 72.406016,16.988928 C72.406016,16.7667189 72.3379207,16.5893127 72.201728,16.456704 C72.0655353,16.3240953 71.8540814,16.2255363 71.56736,16.161024 L70.4384,16.182528 L70.427648,16.816896 L70.459904,17.85984 C70.8326419,17.8885121 71.0727675,17.902848 71.180288,17.902848 Z M79.14752,19.04256 L78.964736,18.042624 L78.867968,17.6448 L77.620736,17.623296 L76.545536,17.655552 L76.45952,17.935104 L76.265984,19.04256 L74.556416,19.04256 L76.792832,12.10752 L78.889472,12.10752 L80.9216,19.04256 L79.14752,19.04256 Z M77.85728,13.698816 L77.74976,13.698816 L76.94336,16.333056 L77.739008,16.35456 L78.534656,16.333056 L77.85728,13.698816 Z M84.555776,12.010752 C85.2152353,12.010752 85.8137573,12.1290228 86.35136,12.365568 L86.039552,13.795584 L85.92128,13.860096 C85.4840298,13.5733746 85.0073626,13.430016 84.491264,13.430016 C83.9751654,13.430016 83.5934732,13.5912944 83.346176,13.913856 C83.0988788,14.2364176 82.975232,14.7453405 82.975232,15.44064 C82.975232,16.9459275 83.5092427,17.69856 84.57728,17.69856 C85.0933786,17.69856 85.5843817,17.5767052 86.050304,17.332992 L86.200832,17.419008 L86.061056,18.849024 C85.5592935,19.049729 85.0181149,19.15008 84.437504,19.15008 C83.3551306,19.15008 82.5344028,18.849027 81.975296,18.246912 C81.4161892,17.644797 81.13664,16.7738937 81.13664,15.634176 C81.13664,14.4801222 81.434109,13.5877152 82.029056,12.956928 C82.624003,12.3261408 83.4662346,12.010752 84.555776,12.010752 Z M90.555392,15.376128 C91.2865317,16.4585014 92.1144274,17.5587784 93.039104,18.676992 L93.0176,18.870528 C92.4298211,19.0138887 91.8528028,19.1106557 91.286528,19.160832 L91.092992,19.053312 C90.2041556,17.7343934 89.4658589,16.5875249 88.87808,15.612672 L88.856576,16.816896 L88.93184,19.04256 L87.179264,19.04256 L87.276032,16.988928 L87.179264,12.10752 L88.953344,12.10752 L88.888832,15.214848 L90.576896,12.8064 L90.963968,12.10752 L92.834816,12.10752 L90.555392,15.376128 Z M98.458112,12.010752 C99.2322599,12.010752 99.9024612,12.1361907 100.468736,12.387072 L100.103168,13.946112 L99.95264,13.946112 C99.6014062,13.752575 99.2878094,13.6145924 99.01184,13.53216 C98.7358706,13.4497276 98.4437775,13.408512 98.135552,13.408512 C97.7484781,13.408512 97.4402571,13.4783993 97.21088,13.618176 C96.9815029,13.7579527 96.8112646,13.9891184 96.70016,14.31168 C96.5890554,14.6342416 96.533504,15.0750692 96.533504,15.634176 C96.533504,16.1861148 96.5872635,16.6179824 96.694784,16.929792 C96.8023045,17.2416016 96.9725428,17.4655993 97.205504,17.601792 C97.4384652,17.7379847 97.75923,17.80608 98.167808,17.80608 C98.368513,17.80608 98.6014707,17.7702404 98.866688,17.69856 L98.87744,17.21472 L98.845184,16.096512 L100.447232,15.988992 L100.425728,16.924416 L100.43648,18.698496 C99.5834837,18.9995535 98.7770918,19.15008 98.01728,19.15008 C96.9205705,19.15008 96.0962588,18.854403 95.54432,18.26304 C94.9923812,17.671677 94.716416,16.8240695 94.716416,15.720192 C94.716416,14.515962 95.0389728,13.5966752 95.684096,12.962304 C96.3292192,12.3279328 97.253882,12.010752 98.458112,12.010752 Z M107.15648,16.62336 C107.163648,17.433348 106.914563,18.0569578 106.409216,18.494208 C105.903869,18.9314582 105.185285,19.15008 104.25344,19.15008 C103.350267,19.15008 102.660354,18.9350422 102.18368,18.50496 C101.707006,18.0748778 101.479424,17.458436 101.500928,16.655616 L101.522432,15.60192 L101.479424,12.10752 L103.221248,12.10752 L103.145984,16.419072 C103.138816,16.8778263 103.231999,17.2147189 103.425536,17.42976 C103.619073,17.6448011 103.920126,17.75232 104.328704,17.75232 C104.74445,17.75232 105.050879,17.6465931 105.248,17.435136 C105.445121,17.2236789 105.540096,16.8993302 105.532928,16.46208 L105.457664,12.10752 L107.231744,12.10752 L107.167232,15.623424 L107.15648,16.62336 Z M112.20992,19.04256 L112.027136,18.042624 L111.930368,17.6448 L110.683136,17.623296 L109.607936,17.655552 L109.52192,17.935104 L109.328384,19.04256 L107.618816,19.04256 L109.855232,12.10752 L111.951872,12.10752 L113.984,19.04256 L112.20992,19.04256 Z M110.91968,13.698816 L110.81216,13.698816 L110.00576,16.333056 L110.801408,16.35456 L111.597056,16.333056 L110.91968,13.698816 Z M118.908416,16.3008 C119.503363,17.2254766 120.040958,18.0031968 120.521216,18.633984 L120.499712,18.82752 C119.954941,19.0067209 119.377923,19.1178238 118.76864,19.160832 L118.596608,19.021056 C118.166526,18.218236 117.793794,17.4835233 117.4784,16.816896 L116.56448,16.816896 L116.628992,19.04256 L114.876416,19.04256 L114.973184,16.988928 L114.876416,12.10752 L117.80096,12.096768 C118.553604,12.096768 119.132414,12.2777582 119.537408,12.639744 C119.942402,13.0017298 120.144896,13.5196126 120.144896,14.193408 C120.144896,14.6163221 120.037377,15.0105582 119.822336,15.376128 C119.607295,15.7416978 119.302658,16.0499187 118.908416,16.3008 Z M117.53216,15.54816 C118.048259,15.3617911 118.306304,14.963971 118.306304,14.354688 C118.306304,14.0177903 118.218497,13.7687048 118.04288,13.607424 C117.867263,13.4461432 117.59309,13.3583361 117.220352,13.344 L116.639744,13.376256 L116.596736,15.505152 L117.53216,15.54816 Z M125.305856,19.04256 L125.123072,18.042624 L125.026304,17.6448 L123.779072,17.623296 L122.703872,17.655552 L122.617856,17.935104 L122.42432,19.04256 L120.714752,19.04256 L122.951168,12.10752 L125.047808,12.10752 L127.079936,19.04256 L125.305856,19.04256 Z M124.015616,13.698816 L123.908096,13.698816 L123.101696,16.333056 L123.897344,16.35456 L124.692992,16.333056 L124.015616,13.698816 Z M133.971968,19.04256 L132.079616,19.04256 L129.617408,14.752512 L129.509888,14.752512 L129.499136,16.601856 L129.5744,19.04256 L127.972352,19.04256 L128.06912,16.99968 L127.983104,12.10752 L129.875456,12.10752 L132.337664,16.397568 L132.445184,16.397568 L132.391424,12.172032 L134.004224,12.075264 L133.907456,16.849152 L133.971968,19.04256 Z M140.025344,13.516032 L138.670592,13.45152 L138.369536,13.45152 L138.315776,16.816896 L138.380288,19.04256 L136.638464,19.04256 L136.735232,16.988928 L136.681472,13.45152 L136.358912,13.45152 L134.993408,13.516032 L134.885888,13.387008 L134.993408,12.10752 L140.025344,12.10752 L140.122112,12.236544 L140.025344,13.516032 Z M145.680896,17.75232 L145.573376,19.04256 L140.993024,19.04256 L141.089792,16.988928 L140.993024,12.10752 L145.637888,12.10752 L145.734656,12.236544 L145.616384,13.526784 L143.92832,13.462272 L142.7456,13.473024 L142.724096,14.860032 L143.853056,14.860032 L144.982016,14.827776 L145.078784,14.9568 L144.971264,16.24704 L143.734784,16.214784 L142.69184,16.214784 L142.681088,16.816896 L142.702592,17.677056 L143.842304,17.687808 L145.584128,17.623296 L145.680896,17.75232 Z M151.29344,17.75232 L151.18592,19.04256 L146.605568,19.04256 L146.702336,16.988928 L146.605568,12.10752 L151.250432,12.10752 L151.3472,12.236544 L151.228928,13.526784 L149.540864,13.462272 L148.358144,13.473024 L148.33664,14.860032 L149.4656,14.860032 L150.59456,14.827776 L150.691328,14.9568 L150.583808,16.24704 L149.347328,16.214784 L148.304384,16.214784 L148.293632,16.816896 L148.315136,17.677056 L149.454848,17.687808 L151.196672,17.623296 L151.29344,17.75232 Z" id="MONEYBACKGUARANTEE" fill="#387715" fill-rule="nonzero"></path>
        </g>
    </g>
</svg>