<?xml version="1.0" encoding="UTF-8"?>
<svg width="140px" height="30px" viewBox="0 0 140 30" version="1.1" xmlns="http://www.w3.org/2000/svg" xmlns:xlink="http://www.w3.org/1999/xlink">
    <!-- Generator: Sketch 60.1 (88133) - https://sketch.com -->
    <title>1</title>
    <desc>Created with Sketch.</desc>
    <g id="1" stroke="none" stroke-width="1" fill="none" fill-rule="evenodd">
        <g>
            <path d="M15,0 L125,0 C133.284271,-1.52179594e-15 140,6.71572875 140,15 C140,23.2842712 133.284271,30 125,30 L15,30 C6.71572875,30 1.01453063e-15,23.2842712 0,15 C-1.01453063e-15,6.71572875 6.71572875,-2.03091774e-15 15,0 Z" id="Bg" fill="#E9F0F3"></path>
            <g id="icon" transform="translate(3.000000, 3.150400)" fill-rule="nonzero">
                <path d="M12,-1.91846539e-13 C5.38305662,-1.91846539e-13 0,5.38354494 0,12 C0,18.6164551 5.38305662,24 12,24 C18.6169434,24 24,18.6164551 24,12 C24,5.38354494 18.6169434,-1.91846539e-13 12,-1.91846539e-13 Z M12,22 C6.486084,22 2,17.513916 2,12 C2,6.486084 6.486084,2 12,2 C17.513916,2 22,6.486084 22,12 C22,17.513916 17.513916,22 12,22 Z" id="Shape" fill="#FFFFFF"></path>
                <path d="M12,4 C7.58911131,4 4,7.58911131 4,12 C4,16.4108887 7.58911131,20 12,20 C16.4108887,20 20,16.4108887 20,12 C20,7.58911131 16.4108887,4 12,4 Z" id="Path" fill="#FFD116"></path>
                <polygon id="Path" fill="#000000" points="11.4749725 12.0498644 10.4499485 11.0248404 9 12.4742884 11.4749725 14.9487604 15.9994925 10.4242404 14.5500445 8.9747924"></polygon>
            </g>
            <path d="M37.8648649,18.8843844 L36.015015,18.8843844 L33.6081081,14.6906907 L33.503003,14.6906907 L33.4924925,16.4984985 L33.5660661,18.8843844 L32,18.8843844 L32.0945946,16.8873874 L32.0105105,12.1051051 L33.8603604,12.1051051 L36.2672673,16.2987988 L36.3723724,16.2987988 L36.3198198,12.1681682 L37.8963964,12.0735736 L37.8018018,16.7402402 L37.8648649,18.8843844 Z M42.1636637,12 C43.1306355,12 43.8768742,12.2890361 44.4024024,12.8671171 C44.9279306,13.4451981 45.1906907,14.2667614 45.1906907,15.3318318 C45.1906907,16.4950008 44.9034063,17.3971439 44.3288288,18.0382883 C43.7542514,18.6794326 42.9449502,19 41.9009009,19 C40.9409361,19 40.1982008,18.7039569 39.6726727,18.1118619 C39.1471445,17.5197668 38.8843844,16.6806861 38.8843844,15.5945946 C38.8843844,14.4454397 39.1699171,13.5590622 39.740991,12.9354354 C40.3120649,12.3118087 41.1196144,12 42.1636637,12 Z M42.0165165,13.3663664 C41.6801785,13.3663664 41.4139149,13.4294288 41.2177177,13.5555556 C41.0215205,13.6816823 40.8796301,13.8901387 40.792042,14.1809309 C40.704454,14.4717232 40.6606607,14.8658634 40.6606607,15.3633634 C40.6606607,15.9589619 40.7062058,16.4249232 40.7972973,16.7612613 C40.8883888,17.0975993 41.0337828,17.3393386 41.2334835,17.4864865 C41.4331842,17.6336344 41.704703,17.7072072 42.048048,17.7072072 C42.377379,17.7072072 42.6401392,17.642393 42.8363363,17.5127628 C43.0325335,17.3831325 43.1761757,17.1729244 43.2672673,16.8821321 C43.3583588,16.5913399 43.4039039,16.1936962 43.4039039,15.6891892 C43.4039039,15.1005977 43.3583588,14.6398916 43.2672673,14.3070571 C43.1761757,13.9742226 43.0307818,13.734235 42.8310811,13.5870871 C42.6313804,13.4399392 42.3598616,13.3663664 42.0165165,13.3663664 Z M53.5675676,18.8843844 L51.8543544,18.8843844 L51.9384384,16.8768769 L51.9279279,16.1936937 L50.5615616,16.1726727 L49.3528529,16.2042042 L49.3423423,16.7087087 L49.4054054,18.8843844 L47.6921922,18.8843844 L47.7867868,16.8768769 L47.6921922,12.1051051 L49.4369369,12.1051051 L49.3843844,14.7957958 L50.6666667,14.8273273 L51.9069069,14.8063063 L51.8543544,12.1051051 L53.5885886,12.1051051 L53.493994,16.7087087 L53.5675676,18.8843844 Z M56.7837838,18.8843844 L55.0705706,18.8843844 L55.1651652,16.8768769 L55.0705706,12.1051051 L56.8153153,12.1051051 L56.7207207,16.7087087 L56.7837838,18.8843844 Z M61.1771772,12.0630631 C62.1721771,12.0630631 62.9324298,12.3345819 63.457958,12.8776276 C63.9834861,13.4206734 64.2462462,14.2036986 64.2462462,15.2267267 C64.2462462,16.431938 63.944948,17.3568536 63.3423423,18.0015015 C62.7397367,18.6461494 61.8778835,18.9684685 60.7567568,18.9684685 C60.1121089,18.9684685 59.2993042,18.9404407 58.3183183,18.8843844 L58.3078078,18.8843844 L58.4024024,16.8768769 L58.3078078,12.1051051 L58.3183183,12.1051051 L61.1771772,12.0630631 Z M61.0720721,17.6756757 C62.0040087,17.6756757 62.46997,16.9960028 62.46997,15.6366366 C62.46997,14.8378338 62.357859,14.2667685 62.1336336,13.9234234 C61.9094083,13.5800784 61.5450476,13.4084084 61.0405405,13.4084084 C60.6691673,13.4084084 60.3293309,13.4224223 60.021021,13.4504505 L59.957958,16.7087087 L59.978979,17.5915916 C60.3923945,17.6476479 60.7567552,17.6756757 61.0720721,17.6756757 Z M68.1036036,12.0630631 C69.0986036,12.0630631 69.8588562,12.3345819 70.3843844,12.8776276 C70.9099125,13.4206734 71.1726727,14.2036986 71.1726727,15.2267267 C71.1726727,16.431938 70.8713744,17.3568536 70.2687688,18.0015015 C69.6661632,18.6461494 68.8043099,18.9684685 67.6831832,18.9684685 C67.0385353,18.9684685 66.2257306,18.9404407 65.2447447,18.8843844 L65.2342342,18.8843844 L65.3288288,16.8768769 L65.2342342,12.1051051 L65.2447447,12.1051051 L68.1036036,12.0630631 Z M67.9984985,17.6756757 C68.9304351,17.6756757 69.3963964,16.9960028 69.3963964,15.6366366 C69.3963964,14.8378338 69.2842854,14.2667685 69.0600601,13.9234234 C68.8358347,13.5800784 68.471474,13.4084084 67.966967,13.4084084 C67.5955937,13.4084084 67.2557573,13.4224223 66.9474474,13.4504505 L66.8843844,16.7087087 L66.9054054,17.5915916 C67.3188209,17.6476479 67.6831816,17.6756757 67.9984985,17.6756757 Z M76.7432432,17.6231231 L76.6381381,18.8843844 L72.1606607,18.8843844 L72.2552553,16.8768769 L72.1606607,12.1051051 L76.7012012,12.1051051 L76.7957958,12.2312312 L76.6801802,13.4924925 L75.03003,13.4294294 L73.8738739,13.4399399 L73.8528529,14.7957958 L74.9564565,14.7957958 L76.0600601,14.7642643 L76.1546547,14.8903904 L76.0495495,16.1516517 L74.8408408,16.1201201 L73.8213213,16.1201201 L73.8108108,16.7087087 L73.8318318,17.5495495 L74.9459459,17.5600601 L76.6486486,17.496997 L76.7432432,17.6231231 Z M83.512012,18.8843844 L81.6621622,18.8843844 L79.2552553,14.6906907 L79.1501502,14.6906907 L79.1396396,16.4984985 L79.2132132,18.8843844 L77.6471471,18.8843844 L77.7417417,16.8873874 L77.6576577,12.1051051 L79.5075075,12.1051051 L81.9144144,16.2987988 L82.0195195,16.2987988 L81.966967,12.1681682 L83.5435435,12.0735736 L83.4489489,16.7402402 L83.512012,18.8843844 Z M89.3978979,12.0105105 C90.0425458,12.0105105 90.627625,12.126125 91.1531532,12.3573574 L90.8483483,13.7552553 L90.7327327,13.8183183 C90.3053032,13.5380366 89.8393419,13.3978979 89.3348348,13.3978979 C88.8303278,13.3978979 88.4572084,13.555554 88.2154655,13.8708709 C87.9737225,14.1861878 87.8528529,14.6836803 87.8528529,15.3633634 C87.8528529,16.8348422 88.3748697,17.5705706 89.4189189,17.5705706 C89.9234259,17.5705706 90.4034011,17.4514526 90.8588589,17.2132132 L91.006006,17.2972973 L90.8693694,18.6951952 C90.3788764,18.8913924 89.8498527,18.9894895 89.2822823,18.9894895 C88.2242189,18.9894895 87.4219247,18.6951981 86.8753754,18.1066066 C86.3288261,17.5180151 86.0555556,16.6666722 86.0555556,15.5525526 C86.0555556,14.4244188 86.3463434,13.5520551 86.9279279,12.9354354 C87.5095124,12.3188157 88.3328275,12.0105105 89.3978979,12.0105105 Z M97.8378378,18.8843844 L96.1246246,18.8843844 L96.2087087,16.8768769 L96.1981982,16.1936937 L94.8318318,16.1726727 L93.6231231,16.2042042 L93.6126126,16.7087087 L93.6756757,18.8843844 L91.9624625,18.8843844 L92.0570571,16.8768769 L91.9624625,12.1051051 L93.7072072,12.1051051 L93.6546547,14.7957958 L94.9369369,14.8273273 L96.1771772,14.8063063 L96.1246246,12.1051051 L97.8588589,12.1051051 L97.7642643,16.7087087 L97.8378378,18.8843844 Z M103.145646,18.8843844 L102.966967,17.9069069 L102.872372,17.518018 L101.653153,17.496997 L100.602102,17.5285285 L100.518018,17.8018018 L100.328829,18.8843844 L98.6576577,18.8843844 L100.843844,12.1051051 L102.893393,12.1051051 L104.87988,18.8843844 L103.145646,18.8843844 Z M101.884384,13.6606607 L101.779279,13.6606607 L100.990991,16.2357357 L101.768769,16.2567568 L102.546547,16.2357357 L101.884384,13.6606607 Z M109.693694,16.2042042 C110.275278,17.1081126 110.800798,17.8683653 111.27027,18.484985 L111.249249,18.6741742 C110.716714,18.8493502 110.152656,18.9579577 109.557057,19 L109.388889,18.8633634 C108.968466,18.0785747 108.604106,17.3603636 108.295796,16.7087087 L107.402402,16.7087087 L107.465465,18.8843844 L105.752252,18.8843844 L105.846847,16.8768769 L105.752252,12.1051051 L108.611111,12.0945946 C109.346851,12.0945946 109.912661,12.2715198 110.308559,12.6253754 C110.704456,12.979231 110.902402,13.4854822 110.902402,14.1441441 C110.902402,14.5575596 110.797298,14.9429412 110.587087,15.3003003 C110.376876,15.6576594 110.079081,15.9589577 109.693694,16.2042042 Z M108.348348,15.4684685 C108.852855,15.2862854 109.105105,14.8974004 109.105105,14.3018018 C109.105105,13.9724708 109.01927,13.7289798 108.847598,13.5713213 C108.675925,13.4136629 108.40791,13.3278279 108.043544,13.3138138 L107.475976,13.3453453 L107.433934,15.4264264 L108.348348,15.4684685 Z M115.201201,12.0105105 C115.957962,12.0105105 116.61311,12.1331319 117.166667,12.3783784 L116.809309,13.9024024 L116.662162,13.9024024 C116.318817,13.7132123 116.012264,13.5783287 115.742492,13.4977477 C115.472721,13.4171668 115.187189,13.3768769 114.885886,13.3768769 C114.507506,13.3768769 114.206207,13.4451945 113.981982,13.5818318 C113.757757,13.7184692 113.591342,13.9444429 113.482733,14.2597598 C113.374124,14.5750767 113.31982,15.0060033 113.31982,15.5525526 C113.31982,16.0920948 113.372372,16.5142627 113.477477,16.8190691 C113.582583,17.1238754 113.748998,17.3428422 113.976727,17.475976 C114.204456,17.6091098 114.518016,17.6756757 114.917417,17.6756757 C115.113615,17.6756757 115.34134,17.640641 115.600601,17.5705706 L115.611111,17.0975976 L115.57958,16.0045045 L117.145646,15.8993994 L117.124625,16.8138138 L117.135135,18.548048 C116.301297,18.8423438 115.513017,18.9894895 114.77027,18.9894895 C113.698193,18.9894895 112.892395,18.7004533 112.352853,18.1223724 C111.813311,17.5442914 111.543544,16.7157211 111.543544,15.6366366 C111.543544,14.4594536 111.858856,13.5608139 112.489489,12.9406907 C113.120123,12.3205675 114.024018,12.0105105 115.201201,12.0105105 Z M122.884384,17.6231231 L122.779279,18.8843844 L118.301802,18.8843844 L118.396396,16.8768769 L118.301802,12.1051051 L122.842342,12.1051051 L122.936937,12.2312312 L122.821321,13.4924925 L121.171171,13.4294294 L120.015015,13.4399399 L119.993994,14.7957958 L121.097598,14.7957958 L122.201201,14.7642643 L122.295796,14.8903904 L122.190691,16.1516517 L120.981982,16.1201201 L119.962462,16.1201201 L119.951952,16.7087087 L119.972973,17.5495495 L121.087087,17.5600601 L122.78979,17.496997 L122.884384,17.6231231 Z M126.132132,12 C126.734738,12 127.344341,12.1191179 127.960961,12.3573574 L127.687688,13.7867868 L127.435435,13.8813814 C126.860858,13.5100082 126.363365,13.3243243 125.942943,13.3243243 C125.711711,13.3243243 125.527778,13.3821316 125.391141,13.4977477 C125.254504,13.6133639 125.186186,13.7482475 125.186186,13.9024024 C125.186186,14.0775785 125.272021,14.2264759 125.443694,14.3490991 C125.615366,14.4717223 125.886885,14.6171163 126.258258,14.7852853 C126.650653,14.9674684 126.967717,15.1338831 127.209459,15.2845345 C127.451202,15.4351859 127.661411,15.6366354 127.84009,15.8888889 C128.01877,16.1411424 128.108108,16.4494476 128.108108,16.8138138 C128.108108,17.2202223 127.997749,17.5880864 127.777027,17.9174174 C127.556305,18.2467484 127.242745,18.5077568 126.836336,18.7004505 C126.429928,18.8931441 125.960463,18.9894895 125.427928,18.9894895 C124.720217,18.9894895 124.019523,18.8493508 123.325826,18.5690691 L123.567568,17.045045 L123.746246,16.9399399 C124.040542,17.1851864 124.361109,17.3761254 124.707958,17.5127628 C125.054807,17.6494001 125.354353,17.7177177 125.606607,17.7177177 C125.872874,17.7177177 126.074324,17.6581588 126.210961,17.539039 C126.347598,17.4199193 126.415916,17.2797806 126.415916,17.1186186 C126.415916,16.9294285 126.328329,16.7717724 126.153153,16.6456456 C125.977977,16.5195189 125.704707,16.3723732 125.333333,16.2042042 C124.954953,16.0290282 124.644896,15.8661169 124.403153,15.7154655 C124.16141,15.5648141 123.952954,15.3633646 123.777778,15.1111111 C123.602602,14.8588576 123.515015,14.5505524 123.515015,14.1861862 C123.515015,13.7727707 123.625374,13.3996513 123.846096,13.0668168 C124.066818,12.7339823 124.375123,12.4729739 124.771021,12.2837838 C125.166919,12.0945936 125.620618,12 126.132132,12 Z" id="NOHIDDENCHARGES" fill="#1D1D28" fill-rule="nonzero"></path>
        </g>
    </g>
</svg>