<svg xmlns="http://www.w3.org/2000/svg" width="62.421" height="9.754" viewBox="0 0 62.421 9.754">
  <g id="Group_844" data-name="Group 844" transform="translate(-574.867 -2816.639)">
    <g id="star-fill" transform="translate(574.867 2816.639)">
      <path id="Path_18" data-name="Path 18" d="M2.351,10.84a.345.345,0,0,1-.485-.385l.54-3.076L.115,5.2A.362.362,0,0,1,.3,4.58l3.185-.453L4.9,1.314a.334.334,0,0,1,.6,0l1.42,2.814,3.185.453a.362.362,0,0,1,.184.618L8,7.38l.54,3.076a.345.345,0,0,1-.485.385L5.2,9.373,2.35,10.84Z" transform="translate(-0.003 -1.123)" fill="#fd8c04"/>
    </g>
    <g id="star-fill-2" data-name="star-fill" transform="translate(587.871 2816.639)">
      <path id="Path_18-2" data-name="Path 18" d="M2.351,10.84a.345.345,0,0,1-.485-.385l.54-3.076L.115,5.2A.362.362,0,0,1,.3,4.58l3.185-.453L4.9,1.314a.334.334,0,0,1,.6,0l1.42,2.814,3.185.453a.362.362,0,0,1,.184.618L8,7.38l.54,3.076a.345.345,0,0,1-.485.385L5.2,9.373,2.35,10.84Z" transform="translate(-0.003 -1.123)" fill="#fd8c04"/>
    </g>
    <g id="star-fill-3" data-name="star-fill" transform="translate(600.875 2816.639)">
      <path id="Path_18-3" data-name="Path 18" d="M2.351,10.84a.345.345,0,0,1-.485-.385l.54-3.076L.115,5.2A.362.362,0,0,1,.3,4.58l3.185-.453L4.9,1.314a.334.334,0,0,1,.6,0l1.42,2.814,3.185.453a.362.362,0,0,1,.184.618L8,7.38l.54,3.076a.345.345,0,0,1-.485.385L5.2,9.373,2.35,10.84Z" transform="translate(-0.003 -1.123)" fill="#fd8c04"/>
    </g>
    <g id="star-fill-4" data-name="star-fill" transform="translate(613.88 2816.639)">
      <path id="Path_18-4" data-name="Path 18" d="M2.351,10.84a.345.345,0,0,1-.485-.385l.54-3.076L.115,5.2A.362.362,0,0,1,.3,4.58l3.185-.453L4.9,1.314a.334.334,0,0,1,.6,0l1.42,2.814,3.185.453a.362.362,0,0,1,.184.618L8,7.38l.54,3.076a.345.345,0,0,1-.485.385L5.2,9.373,2.35,10.84Z" transform="translate(-0.003 -1.123)" fill="#fd8c04"/>
    </g>
    <g id="star-half" transform="translate(626.884 2816.639)">
      <path id="Path_19" data-name="Path 19" d="M3.484,4.128,4.9,1.315a.334.334,0,0,1,.6,0l1.42,2.814,3.185.453a.349.349,0,0,1,.295.328A.358.358,0,0,1,10.3,5.2L8,7.381l.54,3.076a.345.345,0,0,1-.485.385L5.2,9.374,2.351,10.841a.338.338,0,0,1-.095.033.35.35,0,0,1-.39-.418l.54-3.076L.115,5.2A.358.358,0,0,1,0,4.936a.383.383,0,0,1,.055-.2A.333.333,0,0,1,.3,4.581l3.185-.453ZM5.2,8.62a.321.321,0,0,1,.151.036l2.4,1.231L7.3,7.315a.367.367,0,0,1,.106-.328L9.3,5.186,6.662,4.811a.341.341,0,0,1-.255-.187l-1.2-2.379V8.619Z" transform="translate(-0.004 -1.125)" fill="#fd8c04" fill-rule="evenodd"/>
    </g>
  </g>
</svg>
